<svg xmlns="http://www.w3.org/2000/svg" xmlns:xlink="http://www.w3.org/1999/xlink" width="500" zoomAndPan="magnify" viewBox="0 0 375 374.999991" height="500" preserveAspectRatio="xMidYMid meet" version="1.0"><defs><g/><clipPath id="b70aef826e"><path d="M 149.375 117.878906 L 225.617188 117.878906 L 225.617188 177.835938 L 149.375 177.835938 Z M 149.375 117.878906 " clip-rule="nonzero"/></clipPath></defs><g clip-path="url(#b70aef826e)"><path fill="#ddb661" d="M 207.820312 117.878906 L 194.179688 144.023438 L 182.597656 121.824219 L 192.398438 121.824219 L 189.726562 126.945312 L 191.953125 131.214844 L 198.910156 117.878906 L 176.082031 117.878906 L 194.179688 152.558594 L 194.179688 152.566406 L 196.410156 148.296875 L 196.40625 148.289062 L 210.214844 121.824219 L 219.113281 121.824219 L 194.171875 169.628906 L 187.496094 156.835938 L 167.171875 117.878906 L 149.375 117.878906 L 180.65625 177.835938 L 185.105469 177.835938 L 155.882812 121.824219 L 164.78125 121.824219 L 194.003906 177.835938 L 194.339844 177.835938 L 225.617188 117.878906 L 207.820312 117.878906 " fill-opacity="1" fill-rule="nonzero"/></g><g fill="#000000" fill-opacity="1"><g transform="translate(73.289062, 218.84064)"><g><path d="M 4.953125 0 L 4.953125 -24 L 8.234375 -24 L 8.234375 0 Z M 4.953125 0 "/></g></g></g><g fill="#000000" fill-opacity="1"><g transform="translate(86.48775, 218.84064)"><g><path d="M 28.3125 -24 L 31.59375 -24 L 31.59375 0 L 27.203125 0 L 8.234375 -20.484375 L 8.234375 0 L 4.953125 0 L 4.953125 -24 L 9.3125 -24 L 28.3125 -3.515625 Z M 28.3125 -24 "/></g></g></g><g fill="#000000" fill-opacity="1"><g transform="translate(123.044113, 218.84064)"><g><path d="M 26.484375 -24 L 30.15625 -24 L 16.953125 0 L 13.078125 0 L -0.125 -24 L 3.765625 -24 L 15.125 -3.359375 Z M 26.484375 -24 "/></g></g></g><g fill="#000000" fill-opacity="1"><g transform="translate(153.161115, 218.84064)"><g><path d="M 4.953125 0 L 4.953125 -24 L 8.234375 -24 L 8.234375 0 Z M 4.953125 0 "/></g></g></g><g fill="#000000" fill-opacity="1"><g transform="translate(166.359803, 218.84064)"><g><path d="M 19.046875 0.40625 C 15.171875 0.40625 12.070312 -0.113281 9.75 -1.15625 C 7.4375 -2.195312 5.765625 -3.617188 4.734375 -5.421875 C 3.710938 -7.222656 3.203125 -9.226562 3.203125 -11.4375 L 3.203125 -12.640625 C 3.203125 -14.878906 3.710938 -16.890625 4.734375 -18.671875 C 5.765625 -20.460938 7.4375 -21.878906 9.75 -22.921875 C 12.070312 -23.960938 15.171875 -24.484375 19.046875 -24.484375 C 22.296875 -24.484375 25.066406 -24.082031 27.359375 -23.28125 C 29.648438 -22.476562 31.421875 -21.390625 32.671875 -20.015625 C 33.929688 -18.640625 34.613281 -17.085938 34.71875 -15.359375 L 31.15625 -15.359375 C 30.945312 -17.117188 29.757812 -18.546875 27.59375 -19.640625 C 25.4375 -20.734375 22.585938 -21.28125 19.046875 -21.28125 C 14.640625 -21.28125 11.457031 -20.515625 9.5 -18.984375 C 7.539062 -17.453125 6.5625 -15.335938 6.5625 -12.640625 L 6.5625 -11.4375 C 6.5625 -8.769531 7.539062 -6.660156 9.5 -5.109375 C 11.457031 -3.566406 14.640625 -2.796875 19.046875 -2.796875 C 22.859375 -2.796875 25.722656 -3.351562 27.640625 -4.46875 C 29.554688 -5.59375 30.71875 -7.101562 31.125 -9 L 34.6875 -9 C 34.4375 -7.207031 33.734375 -5.597656 32.578125 -4.171875 C 31.421875 -2.753906 29.734375 -1.632812 27.515625 -0.8125 C 25.304688 0 22.484375 0.40625 19.046875 0.40625 Z M 19.046875 0.40625 "/></g></g></g><g fill="#000000" fill-opacity="1"><g transform="translate(204.356027, 218.84064)"><g><path d="M 26.515625 -24 L 26.515625 -20.875 L 14.84375 -20.875 L 14.84375 0 L 11.5625 0 L 11.5625 -20.875 L -0.125 -20.875 L -0.125 -24 Z M 26.515625 -24 "/></g></g></g><g fill="#000000" fill-opacity="1"><g transform="translate(230.713405, 218.84064)"><g><path d="M 18.15625 0.40625 C 15.25 0.40625 12.835938 0.101562 10.921875 -0.5 C 9.003906 -1.101562 7.488281 -1.929688 6.375 -2.984375 C 5.269531 -4.035156 4.484375 -5.253906 4.015625 -6.640625 C 3.546875 -8.023438 3.3125 -9.519531 3.3125 -11.125 L 3.4375 -23.953125 L 7 -23.953125 L 7 -11.125 C 7 -8.613281 7.882812 -6.628906 9.65625 -5.171875 C 11.425781 -3.722656 14.257812 -3 18.15625 -3 C 22.132812 -3 24.988281 -3.703125 26.71875 -5.109375 C 28.445312 -6.523438 29.3125 -8.53125 29.3125 -11.125 L 29.4375 -23.953125 L 33 -23.953125 L 33 -11.515625 C 33 -9.890625 32.769531 -8.359375 32.3125 -6.921875 C 31.863281 -5.484375 31.082031 -4.21875 29.96875 -3.125 C 28.863281 -2.03125 27.351562 -1.164062 25.4375 -0.53125 C 23.519531 0.09375 21.09375 0.40625 18.15625 0.40625 Z M 18.15625 0.40625 "/></g></g></g><g fill="#000000" fill-opacity="1"><g transform="translate(267.189774, 218.84064)"><g><path d="M 28.046875 -16.484375 C 28.046875 -18.109375 27.109375 -19.289062 25.234375 -20.03125 C 23.367188 -20.78125 20.851562 -21.15625 17.6875 -21.15625 C 15.5 -21.15625 13.570312 -21.054688 11.90625 -20.859375 C 10.238281 -20.660156 8.9375 -20.347656 8 -19.921875 C 7.0625 -19.492188 6.59375 -18.929688 6.59375 -18.234375 L 6.59375 -17.640625 C 6.59375 -17.265625 6.691406 -16.894531 6.890625 -16.53125 C 7.097656 -16.175781 7.539062 -15.835938 8.21875 -15.515625 C 8.894531 -15.203125 9.929688 -14.90625 11.328125 -14.625 C 12.734375 -14.34375 14.640625 -14.082031 17.046875 -13.84375 C 20.210938 -13.550781 22.828125 -13.179688 24.890625 -12.734375 C 26.960938 -12.296875 28.507812 -11.632812 29.53125 -10.75 C 30.5625 -9.875 31.078125 -8.597656 31.078125 -6.921875 L 31.078125 -6.359375 C 31.078125 -4.066406 29.957031 -2.363281 27.71875 -1.25 C 25.476562 -0.144531 21.851562 0.40625 16.84375 0.40625 C 12.144531 0.40625 8.695312 -0.316406 6.5 -1.765625 C 4.300781 -3.222656 3.203125 -5.25 3.203125 -7.84375 L 6.484375 -7.84375 C 6.484375 -6.21875 7.316406 -4.96875 8.984375 -4.09375 C 10.648438 -3.226562 13.269531 -2.796875 16.84375 -2.796875 C 18.738281 -2.796875 20.507812 -2.894531 22.15625 -3.09375 C 23.8125 -3.300781 25.148438 -3.660156 26.171875 -4.171875 C 27.203125 -4.691406 27.71875 -5.421875 27.71875 -6.359375 L 27.71875 -6.921875 C 27.71875 -7.265625 27.609375 -7.609375 27.390625 -7.953125 C 27.179688 -8.304688 26.722656 -8.640625 26.015625 -8.953125 C 25.304688 -9.273438 24.21875 -9.578125 22.75 -9.859375 C 21.289062 -10.140625 19.304688 -10.398438 16.796875 -10.640625 C 13.597656 -10.984375 11 -11.378906 9 -11.828125 C 7 -12.285156 5.535156 -12.960938 4.609375 -13.859375 C 3.691406 -14.753906 3.234375 -16.015625 3.234375 -17.640625 L 3.234375 -18.234375 C 3.234375 -20.210938 4.367188 -21.726562 6.640625 -22.78125 C 8.910156 -23.832031 12.59375 -24.359375 17.6875 -24.359375 C 21.976562 -24.359375 25.320312 -23.738281 27.71875 -22.5 C 30.113281 -21.257812 31.3125 -19.253906 31.3125 -16.484375 Z M 28.046875 -16.484375 "/></g></g></g><path stroke-linecap="butt" transform="matrix(0.75, 0, 0, 0.75, 76.471787, 226.090648)" fill="none" stroke-linejoin="miter" d="M 0.00115836 1.998927 L 296.074094 1.998927 " stroke="#ddb661" stroke-width="4" stroke-opacity="1" stroke-miterlimit="4"/><g fill="#000000" fill-opacity="1"><g transform="translate(132.511945, 246.279682)"><g><path d="M 7.5625 -9 L 8.5 -9 L 8.5 0 L 7.609375 0 L 2.0625 -7.390625 L 2.0625 0 L 1.09375 0 L 1.09375 -9 L 2 -9 L 7.5625 -1.609375 Z M 7.5625 -9 "/></g></g></g><g fill="#000000" fill-opacity="1"><g transform="translate(147.692248, 246.279682)"><g><path d="M 4.421875 0.125 C 3.773438 0.125 3.195312 -0.00390625 2.6875 -0.265625 C 2.175781 -0.535156 1.773438 -0.898438 1.484375 -1.359375 C 1.191406 -1.828125 1.046875 -2.359375 1.046875 -2.953125 L 1.046875 -9 L 2.015625 -9 L 2.015625 -3.109375 C 2.015625 -2.671875 2.117188 -2.28125 2.328125 -1.9375 C 2.535156 -1.59375 2.820312 -1.320312 3.1875 -1.125 C 3.550781 -0.9375 3.960938 -0.84375 4.421875 -0.84375 C 4.890625 -0.84375 5.304688 -0.9375 5.671875 -1.125 C 6.035156 -1.320312 6.320312 -1.59375 6.53125 -1.9375 C 6.75 -2.28125 6.859375 -2.671875 6.859375 -3.109375 L 6.859375 -9 L 7.8125 -9 L 7.8125 -2.953125 C 7.8125 -2.359375 7.664062 -1.828125 7.375 -1.359375 C 7.082031 -0.898438 6.679688 -0.535156 6.171875 -0.265625 C 5.671875 -0.00390625 5.085938 0.125 4.421875 0.125 Z M 4.421875 0.125 "/></g></g></g><g fill="#000000" fill-opacity="1"><g transform="translate(162.137555, 246.279682)"><g><path d="M 6.078125 -9 L 6.078125 -8.046875 L 3.578125 -8.046875 L 3.578125 0 L 2.625 0 L 2.625 -8.046875 L 0.140625 -8.046875 L 0.140625 -9 Z M 6.078125 -9 "/></g></g></g><g fill="#000000" fill-opacity="1"><g transform="translate(173.927867, 246.279682)"><g><path d="M 4.734375 -4.109375 L 7.390625 0 L 6.296875 0 L 3.75 -4.0625 L 2.0625 -4.0625 L 2.0625 0 L 1.09375 0 L 1.09375 -9 L 4.3125 -9 C 4.78125 -9 5.203125 -8.882812 5.578125 -8.65625 C 5.960938 -8.4375 6.265625 -8.132812 6.484375 -7.75 C 6.710938 -7.375 6.828125 -6.953125 6.828125 -6.484375 C 6.828125 -6.078125 6.734375 -5.703125 6.546875 -5.359375 C 6.359375 -5.023438 6.109375 -4.75 5.796875 -4.53125 C 5.492188 -4.3125 5.140625 -4.171875 4.734375 -4.109375 Z M 2.0625 -4.984375 L 4.265625 -4.984375 C 4.722656 -4.984375 5.101562 -5.117188 5.40625 -5.390625 C 5.707031 -5.671875 5.859375 -6.046875 5.859375 -6.515625 C 5.859375 -6.960938 5.703125 -7.328125 5.390625 -7.609375 C 5.085938 -7.898438 4.710938 -8.046875 4.265625 -8.046875 L 2.0625 -8.046875 Z M 2.0625 -4.984375 "/></g></g></g><g fill="#000000" fill-opacity="1"><g transform="translate(187.038175, 246.279682)"><g><path d="M 1.171875 0 L 1.171875 -9 L 2.125 -9 L 2.125 0 Z M 1.171875 0 "/></g></g></g><g fill="#000000" fill-opacity="1"><g transform="translate(195.903477, 246.279682)"><g><path d="M 6.078125 -9 L 6.078125 -8.046875 L 3.578125 -8.046875 L 3.578125 0 L 2.625 0 L 2.625 -8.046875 L 0.140625 -8.046875 L 0.140625 -9 Z M 6.078125 -9 "/></g></g></g><g fill="#000000" fill-opacity="1"><g transform="translate(207.693786, 246.279682)"><g><path d="M 1.171875 0 L 1.171875 -9 L 2.125 -9 L 2.125 0 Z M 1.171875 0 "/></g></g></g><g fill="#000000" fill-opacity="1"><g transform="translate(216.559089, 246.279682)"><g><path d="M 5.359375 0.125 C 4.710938 0.125 4.113281 0.00390625 3.5625 -0.234375 C 3.007812 -0.472656 2.519531 -0.804688 2.09375 -1.234375 C 1.664062 -1.660156 1.332031 -2.148438 1.09375 -2.703125 C 0.851562 -3.265625 0.734375 -3.863281 0.734375 -4.5 C 0.734375 -5.132812 0.851562 -5.726562 1.09375 -6.28125 C 1.332031 -6.84375 1.664062 -7.335938 2.09375 -7.765625 C 2.519531 -8.191406 3.007812 -8.523438 3.5625 -8.765625 C 4.113281 -9.003906 4.710938 -9.125 5.359375 -9.125 C 5.992188 -9.125 6.59375 -9.003906 7.15625 -8.765625 C 7.71875 -8.523438 8.207031 -8.191406 8.625 -7.765625 C 9.039062 -7.335938 9.367188 -6.84375 9.609375 -6.28125 C 9.847656 -5.726562 9.96875 -5.132812 9.96875 -4.5 C 9.96875 -3.863281 9.847656 -3.265625 9.609375 -2.703125 C 9.367188 -2.148438 9.039062 -1.660156 8.625 -1.234375 C 8.207031 -0.804688 7.71875 -0.472656 7.15625 -0.234375 C 6.59375 0.00390625 5.992188 0.125 5.359375 0.125 Z M 5.359375 -0.84375 C 6.035156 -0.84375 6.648438 -1.003906 7.203125 -1.328125 C 7.765625 -1.648438 8.207031 -2.085938 8.53125 -2.640625 C 8.851562 -3.203125 9.015625 -3.820312 9.015625 -4.5 C 9.015625 -5.175781 8.851562 -5.789062 8.53125 -6.34375 C 8.207031 -6.90625 7.765625 -7.347656 7.203125 -7.671875 C 6.648438 -7.992188 6.035156 -8.15625 5.359375 -8.15625 C 4.679688 -8.15625 4.066406 -7.992188 3.515625 -7.671875 C 2.960938 -7.347656 2.519531 -6.90625 2.1875 -6.34375 C 1.851562 -5.789062 1.6875 -5.175781 1.6875 -4.5 C 1.6875 -3.820312 1.851562 -3.203125 2.1875 -2.640625 C 2.519531 -2.085938 2.960938 -1.648438 3.515625 -1.328125 C 4.066406 -1.003906 4.679688 -0.84375 5.359375 -0.84375 Z M 5.359375 -0.84375 "/></g></g></g><g fill="#000000" fill-opacity="1"><g transform="translate(232.864389, 246.279682)"><g><path d="M 7.5625 -9 L 8.5 -9 L 8.5 0 L 7.609375 0 L 2.0625 -7.390625 L 2.0625 0 L 1.09375 0 L 1.09375 -9 L 2 -9 L 7.5625 -1.609375 Z M 7.5625 -9 "/></g></g></g></svg>